<svg width="15" height="18" viewBox="0 0 15 18" fill="none" xmlns="http://www.w3.org/2000/svg">
<path fill-rule="evenodd" clip-rule="evenodd" d="M9.67913 0.0790485C9.80114 0.146962 9.8969 0.253782 9.95112 0.382468C10.0053 0.511154 10.0149 0.654292 9.97829 0.789048L8.31829 6.87488H14.375C14.4968 6.87489 14.6159 6.91049 14.7177 6.9773C14.8196 7.04411 14.8997 7.13922 14.9482 7.25094C14.9967 7.36267 15.0115 7.48613 14.9908 7.60616C14.9701 7.72618 14.9148 7.83754 14.8316 7.92655L6.08163 17.3015C5.98632 17.4039 5.85946 17.4713 5.72132 17.493C5.58318 17.5147 5.44174 17.4895 5.31964 17.4213C5.19754 17.3532 5.10182 17.246 5.04779 17.1171C4.99376 16.9881 4.98455 16.8447 5.02163 16.7099L6.68163 10.6249H0.624961C0.50316 10.6249 0.384015 10.5893 0.282173 10.5225C0.180331 10.4557 0.10023 10.3605 0.0517161 10.2488C0.00320264 10.1371 -0.011609 10.0136 0.00910218 9.89361C0.0298133 9.77358 0.0851445 9.66222 0.168294 9.57321L8.91829 0.198215C9.0136 0.0962536 9.14029 0.0291257 9.27818 0.00752893C9.41606 -0.0140678 9.55721 0.0111095 9.67913 0.0790485Z" fill="#294F7C"/>
</svg>
