<svg width="14" height="18" viewBox="0 0 14 18" fill="none" xmlns="http://www.w3.org/2000/svg">
<path fill-rule="evenodd" clip-rule="evenodd" d="M6.875 0C5.71468 0 4.60188 0.460936 3.78141 1.28141C2.96094 2.10188 2.5 3.21468 2.5 4.375V6.875C1.83696 6.875 1.20107 7.13839 0.732233 7.60723C0.263392 8.07607 0 8.71196 0 9.375V15C0 15.663 0.263392 16.2989 0.732233 16.7678C1.20107 17.2366 1.83696 17.5 2.5 17.5H11.25C11.913 17.5 12.5489 17.2366 13.0178 16.7678C13.4866 16.2989 13.75 15.663 13.75 15V9.375C13.75 8.71196 13.4866 8.07607 13.0178 7.60723C12.5489 7.13839 11.913 6.875 11.25 6.875V4.375C11.25 1.95833 9.29167 0 6.875 0ZM10 6.875V4.375C10 3.5462 9.67076 2.75134 9.08471 2.16529C8.49866 1.57924 7.7038 1.25 6.875 1.25C6.0462 1.25 5.25134 1.57924 4.66529 2.16529C4.07924 2.75134 3.75 3.5462 3.75 4.375V6.875H10Z" fill="#8F8F8F"/>
</svg>
