<svg width="20" height="21" viewBox="0 0 20 21" fill="none" xmlns="http://www.w3.org/2000/svg">
<path fill-rule="evenodd" clip-rule="evenodd" d="M10.266 0.205717C10.1267 0.0736276 9.942 0 9.75001 0C9.55802 0 9.37334 0.0736276 9.23401 0.205717C7.11128 2.2216 4.28413 3.32704 1.35701 3.28572C1.19754 3.28364 1.04157 3.33246 0.911731 3.42507C0.781897 3.51768 0.684963 3.64926 0.635007 3.80072C0.21298 5.08688 -0.00137527 6.43208 6.63912e-06 7.78572C6.63912e-06 13.7277 4.06401 18.7187 9.56301 20.1337C9.68567 20.1653 9.81435 20.1653 9.93701 20.1337C15.436 18.7187 19.5 13.7277 19.5 7.78572C19.5 6.39572 19.277 5.05572 18.865 3.80072C18.8152 3.64908 18.7184 3.51727 18.5885 3.42447C18.4587 3.33167 18.3026 3.28271 18.143 3.28472L18 3.28572C15.004 3.28572 12.283 2.11572 10.266 0.205717ZM13.36 8.22172C13.42 8.14177 13.4634 8.05063 13.4877 7.95367C13.512 7.8567 13.5166 7.75586 13.5014 7.65707C13.4861 7.55828 13.4513 7.46354 13.3989 7.37841C13.3465 7.29329 13.2776 7.21949 13.1963 7.16137C13.1149 7.10324 13.0228 7.06196 12.9253 7.03995C12.8278 7.01793 12.7269 7.01563 12.6285 7.03318C12.5301 7.05073 12.4362 7.08777 12.3523 7.14213C12.2684 7.19649 12.1962 7.26707 12.14 7.34972L8.90401 11.8797L7.28001 10.2557C7.13783 10.1232 6.94979 10.0511 6.75548 10.0545C6.56118 10.058 6.3758 10.1367 6.23839 10.2741C6.10097 10.4115 6.02226 10.5969 6.01883 10.7912C6.0154 10.9855 6.08753 11.1735 6.22001 11.3157L8.47001 13.5657C8.547 13.6426 8.63981 13.7019 8.74199 13.7394C8.84418 13.7768 8.9533 13.7916 9.06177 13.7826C9.17024 13.7737 9.27546 13.7413 9.37014 13.6876C9.46481 13.6339 9.54666 13.5602 9.61001 13.4717L13.36 8.22172Z" fill="#098309"/>
</svg>
